<svg width="5710" height="1219" xmlns="http://www.w3.org/2000/svg" xmlns:xlink="http://www.w3.org/1999/xlink" xml:space="preserve" overflow="hidden"><g transform="translate(655 -756)"><g><path d="M3713.16 1134.32C3666.35 1134.32 3627.94 1161.92 3597.93 1217.11L3595.49 1221.83 3756.84 1221.83 3758.46 1215.67C3771.31 1161.44 3756.21 1134.32 3713.16 1134.32ZM2123.53 1134.32C2093.08 1134.32 2067.4 1146.41 2046.51 1170.58 2025.62 1194.75 2007.01 1230.86 1990.68 1278.91 1974.75 1325.77 1968.95 1361.58 1973.28 1386.35 1977.6 1411.12 1994.93 1423.5 2025.26 1423.5 2055.02 1423.5 2080.64 1411.07 2102.11 1386.21 2123.57 1361.35 2142.24 1325.58 2158.1 1278.91 2174.2 1231.54 2179.93 1195.6 2175.3 1171.09 2170.68 1146.57 2153.42 1134.32 2123.53 1134.32ZM546.08 1134.32C499.268 1134.32 460.858 1161.92 430.851 1217.11L428.412 1221.83 589.757 1221.83 591.376 1215.67C604.223 1161.44 589.124 1134.32 546.08 1134.32ZM3152.51 1077.24 3233.4 1077.24 3232.29 1365.15 3223.84 1394.58 3234.84 1365.88 3430.7 1077.24 3510.94 1077.24 3234.91 1479.81 3157.88 1479.81ZM2812.18 1077.24 2981.88 1077.24 2867.82 1412.85 2977.41 1412.85 2954.65 1479.81 2648.73 1479.81 2671.49 1412.85 2787.92 1412.85 2879.22 1144.21 2789.42 1144.21ZM832.75 1077.24 1002.45 1077.24 888.398 1412.85 997.982 1412.85 975.223 1479.81 669.301 1479.81 692.06 1412.85 808.493 1412.85 899.789 1144.21 809.991 1144.21ZM3737.68 1068.87C3763.76 1068.87 3785.06 1073.44 3801.57 1082.58 3818.08 1091.71 3829.71 1104.42 3836.44 1120.69 3843.18 1136.96 3845.82 1156.17 3844.35 1178.32 3842.89 1200.47 3837.88 1224.11 3829.35 1249.23L3817.19 1285 3572.24 1285 3568.72 1296.03C3564.43 1310.53 3561.42 1324.05 3559.71 1336.57 3557.42 1353.26 3558.11 1367.83 3561.78 1380.28 3565.45 1392.72 3572.34 1402.4 3582.43 1409.32 3592.53 1416.24 3607.32 1419.69 3626.82 1419.69 3644.89 1419.69 3664.25 1416.68 3684.89 1410.64 3705.54 1404.6 3727.23 1394.68 3749.98 1380.88L3769.39 1380.88 3745.24 1451.94C3720.43 1465.58 3697.22 1475.29 3675.6 1481.06 3653.98 1486.82 3629.03 1489.71 3600.75 1489.71 3569.04 1489.71 3543.55 1484.54 3524.28 1474.21 3505.01 1463.87 3491.3 1449.09 3483.14 1429.87 3474.99 1410.64 3471.91 1388.09 3473.91 1362.22 3475.91 1336.35 3482.21 1307.82 3492.81 1276.63 3503.51 1245.13 3516.59 1216.6 3532.06 1191.04 3547.53 1165.47 3565.5 1143.67 3585.97 1125.62 3606.45 1107.57 3629.32 1093.6 3654.6 1083.71 3679.87 1073.82 3707.57 1068.87 3737.68 1068.87ZM2145.77 1068.87C2176.5 1068.87 2200.55 1074.51 2217.9 1085.77 2235.26 1097.03 2246.94 1112.25 2252.93 1131.41 2258.93 1150.58 2260.19 1172.95 2256.72 1198.55 2253.25 1224.14 2246.76 1250.93 2237.24 1278.91 2227.68 1307.03 2216.08 1333.83 2202.45 1359.3 2188.81 1384.76 2172.39 1407.25 2153.18 1426.77 2133.98 1446.29 2112.05 1461.65 2087.41 1472.88 2062.76 1484.1 2034.54 1489.71 2002.75 1489.71 1970.9 1489.71 1946.33 1484.1 1929.06 1472.89 1911.78 1461.68 1900.13 1446.45 1894.1 1427.19 1888.08 1407.92 1887.02 1385.63 1890.93 1360.29 1894.84 1334.96 1901.71 1307.84 1911.54 1278.91 1921.34 1250.05 1932.98 1223.04 1946.46 1197.89 1959.93 1172.74 1976.18 1150.59 1995.19 1131.43 2014.2 1112.27 2036.1 1097.05 2060.86 1085.78 2085.63 1074.51 2113.93 1068.87 2145.77 1068.87ZM570.598 1068.87C596.678 1068.87 617.974 1073.44 634.487 1082.58 650.999 1091.71 662.624 1104.42 669.362 1120.69 676.1 1136.96 678.735 1156.17 677.269 1178.32 675.802 1200.47 670.8 1224.11 662.263 1249.23L650.111 1285 405.153 1285 401.64 1296.03C397.345 1310.53 394.34 1324.05 392.625 1336.57 390.338 1353.26 391.03 1367.83 394.7 1380.28 398.37 1392.72 405.253 1402.4 415.348 1409.32 425.443 1416.24 440.241 1419.69 459.742 1419.69 477.808 1419.69 497.164 1416.68 517.81 1410.64 538.456 1404.6 560.15 1394.68 582.893 1380.88L602.31 1380.88 578.161 1451.94C553.349 1465.58 530.134 1475.29 508.517 1481.06 486.9 1486.82 461.95 1489.71 433.666 1489.71 401.957 1489.71 376.468 1484.54 357.197 1474.21 337.926 1463.87 324.215 1449.09 316.062 1429.87 307.909 1410.64 304.831 1388.09 306.829 1362.22 308.826 1336.35 315.124 1307.82 325.723 1276.63 336.424 1245.13 349.51 1216.6 364.98 1191.04 380.449 1165.47 398.42 1143.67 418.892 1125.62 439.363 1107.57 462.237 1093.6 487.512 1083.71 512.788 1073.82 540.483 1068.87 570.598 1068.87ZM1703.99 1067.35C1727.51 1067.35 1742.77 1072.66 1749.78 1083.28 1756.78 1093.9 1757.2 1109.64 1751.01 1130.51 1773.05 1088.41 1803.29 1067.35 1841.73 1067.35 1858.77 1067.35 1871.83 1070.52 1880.91 1076.86 1889.99 1083.2 1895.49 1092.79 1897.41 1105.65 1899.33 1118.5 1898.17 1134.64 1893.93 1154.07 1889.7 1173.5 1883.2 1196.09 1874.45 1221.83L1786.78 1479.81 1712.96 1479.81 1801.42 1219.55C1807.69 1201.1 1812.55 1185.7 1816 1173.36 1819.45 1161.02 1821.35 1151.77 1821.68 1145.61 1822.01 1139.45 1821.37 1135.39 1819.76 1133.44 1818.15 1131.49 1815.52 1130.51 1811.88 1130.51 1802.57 1130.51 1794.3 1132.91 1787.04 1137.7 1779.79 1142.49 1772.79 1149.67 1766.04 1159.24 1759.29 1168.8 1753.13 1180.02 1747.57 1192.89 1742.01 1205.76 1736.59 1219.97 1731.3 1235.53L1648.28 1479.81 1573.7 1479.81 1662.15 1219.55C1668.42 1201.1 1673.2 1185.96 1676.48 1174.13 1679.76 1162.3 1681.61 1153.21 1682.01 1146.86 1682.42 1140.5 1681.8 1136.45 1680.16 1134.68 1678.52 1132.92 1675.58 1132.04 1671.35 1132.04 1663.15 1132.04 1655.31 1134.67 1647.84 1139.93 1640.36 1145.2 1633.13 1152.62 1626.13 1162.21 1619.14 1171.8 1612.56 1183.15 1606.41 1196.26 1600.25 1209.37 1594.78 1222.97 1589.99 1237.05L1507.49 1479.81 1433.68 1479.81 1570.49 1077.24 1640.13 1077.24 1628.81 1111.95 1630.84 1107.5C1636.01 1097.82 1645.07 1089.32 1658.02 1081.99 1675.28 1072.23 1690.6 1067.35 1703.99 1067.35ZM1356.04 1067.35C1375.69 1067.35 1395.05 1069.59 1414.11 1074.08 1433.16 1078.57 1451.2 1086.48 1468.21 1097.8L1445.2 1165.52 1425.95 1165.52C1420.23 1160.35 1413.78 1155.96 1406.58 1152.35 1399.38 1148.73 1391.46 1145.58 1382.81 1142.88 1374.17 1140.19 1365.21 1138.08 1355.93 1136.58 1346.65 1135.07 1338.09 1134.32 1330.24 1134.32 1312.02 1134.32 1296.69 1137.67 1284.24 1144.38 1271.78 1151.1 1263.44 1160.68 1259.21 1173.13 1256.61 1180.78 1255.98 1187.43 1257.32 1193.07 1258.66 1198.71 1262.21 1204.32 1267.98 1209.9 1273.75 1215.48 1282.06 1221.23 1292.9 1227.17 1303.74 1233.1 1316.99 1239.89 1332.67 1247.54 1344.49 1253.42 1355.98 1259.88 1367.13 1266.91 1378.28 1273.94 1387.65 1282.21 1395.24 1291.71 1402.83 1301.21 1407.82 1312.53 1410.19 1325.66 1412.57 1338.79 1410.94 1353.65 1405.31 1370.23 1397.94 1391.91 1386.98 1410.43 1372.43 1425.79 1357.87 1441.16 1341.45 1453.56 1323.15 1462.99 1304.86 1472.42 1285.18 1479.23 1264.12 1483.42 1243.05 1487.61 1222.04 1489.71 1201.08 1489.71 1177.01 1489.71 1154.8 1487.36 1134.47 1482.66 1114.13 1477.95 1092.96 1467.6 1070.97 1451.6L1095.78 1378.6 1114.76 1378.6C1132.28 1393.25 1150.59 1403.89 1169.69 1410.51 1188.8 1417.14 1206.35 1420.46 1222.35 1420.46 1246.93 1420.46 1268.12 1416.51 1285.9 1408.62 1303.68 1400.74 1315.49 1388.19 1321.33 1370.99 1324.25 1362.41 1320.06 1352.23 1308.75 1340.46 1297.45 1328.68 1275.39 1314.57 1242.56 1298.1 1213.24 1282.95 1192.46 1266.12 1180.24 1247.61 1168.02 1229.09 1166.85 1205.28 1176.74 1176.17 1188.48 1141.64 1210.08 1114.87 1241.52 1095.87 1272.96 1076.86 1311.14 1067.35 1356.04 1067.35ZM4475.75 1018.65 4410.83 1209.66 4447.36 1209.66C4466.95 1209.66 4484.7 1208.24 4500.61 1205.39 4516.52 1202.54 4530.91 1197.53 4543.78 1190.35 4556.65 1183.18 4568.26 1173.07 4578.62 1160.03 4588.98 1146.99 4597.7 1130.05 4604.78 1109.21 4611.09 1090.65 4613.43 1075.59 4611.81 1064.02 4610.18 1052.46 4605.66 1043.32 4598.23 1036.63 4590.81 1029.93 4580.46 1025.26 4567.19 1022.61 4553.92 1019.97 4538.92 1018.65 4522.17 1018.65ZM4418.62 949.397 4548.75 949.397C4577.1 949.397 4602.03 952.447 4623.55 958.546 4645.08 964.646 4662.2 974.101 4674.93 986.911 4687.65 999.722 4695.24 1016.25 4697.69 1036.5 4700.13 1056.75 4696.73 1080.48 4687.49 1107.68 4668.99 1162.11 4639.01 1204 4597.55 1233.36 4556.09 1262.71 4502.67 1277.39 4437.29 1277.39L4387.82 1277.39 4319.02 1479.81 4238.36 1479.81ZM4082.85 949.397 4292.13 949.397 4169.02 1311.63C4159.88 1338.51 4149.08 1362.93 4136.6 1384.87 4124.12 1406.82 4108.99 1425.64 4091.22 1441.32 4073.44 1457.01 4052.86 1469 4029.48 1477.28 4006.09 1485.56 3978.91 1489.71 3947.93 1489.71 3940.19 1489.71 3931.83 1489.19 3922.85 1488.15 3913.86 1487.11 3904.72 1485.46 3895.43 1483.2 3886.14 1480.93 3876.7 1478.05 3867.09 1474.54 3857.49 1471.03 3848.23 1466.18 3839.32 1459.98L3863.35 1389.25 3881.91 1389.25C3898.35 1399.79 3912.91 1407.62 3925.59 1412.76 3938.28 1417.89 3953.07 1420.46 3969.95 1420.46 3986.11 1420.46 4000.04 1418.19 4011.74 1413.67 4023.45 1409.15 4033.94 1402.39 4043.22 1393.4 4052.49 1384.42 4060.6 1373.27 4067.54 1359.97 4074.47 1346.68 4080.99 1331.07 4087.07 1313.15L4187.17 1018.65 4059.32 1018.65ZM2446.8 949.397 2527.47 949.397 2371 1409.8 2596.26 1409.8 2572.46 1479.81 2266.54 1479.81ZM215.379 940.265C237.154 940.265 259.255 942.389 281.681 946.638 304.107 950.887 323.318 960.804 339.315 976.388L314.095 1050.61 293.298 1050.61C266.235 1025.75 232.747 1013.32 192.834 1013.32 165.517 1013.32 143.26 1018.04 126.062 1027.46 108.864 1036.89 96.6152 1052.36 89.3143 1073.86 82.719 1093.25 83.9378 1109.02 92.9707 1121.19 102.004 1133.35 116.08 1143.89 135.2 1152.81 160.638 1165.26 182.196 1178.14 199.873 1191.47 217.551 1204.79 230.959 1218.58 240.099 1232.82 249.239 1247.07 254.114 1262.36 254.725 1278.71 255.335 1295.06 252.446 1312.63 246.057 1331.42 227.626 1385.66 197.626 1425.61 156.056 1451.25 114.487 1476.89 64.6611 1489.71 6.57938 1489.71-23.4167 1489.71-49.5345 1485.82-71.7739 1478.04-94.0133 1470.27-113.655 1458.78-130.698 1443.58L-103.183 1362.62-83.944 1362.62C-64.9824 1381.01-46.2824 1394.36-27.844 1402.67-9.40559 1410.97 11.2801 1415.13 34.2132 1415.13 65.9453 1415.13 92.1899 1409.02 112.947 1396.79 133.704 1384.57 148.894 1364.3 158.518 1335.98 165.176 1316.39 163.234 1298.61 152.691 1282.64 142.148 1266.67 126.548 1253.05 105.89 1241.79 82.386 1229.15 62.6001 1217.21 46.5318 1205.95 30.4637 1194.69 18.2342 1182.71 9.84334 1170 1.45252 1157.3-3.00842 1143.34-3.53956 1128.14-4.07069 1112.94-0.983104 1095.47 5.72319 1075.72 13.6503 1052.41 24.9524 1032.17 39.6294 1015.01 54.3063 997.857 71.1692 983.772 90.218 972.762 109.267 961.751 129.55 953.582 151.068 948.255 172.586 942.928 194.023 940.265 215.379 940.265ZM2998.79 895.366C3014.7 895.366 3026.47 901.154 3034.11 912.732 3041.76 924.309 3042.87 938.053 3037.47 953.963 3031.91 970.308 3021.35 984.288 3005.8 995.901 2990.24 1007.51 2974.54 1013.32 2958.7 1013.32 2942.79 1013.32 2931.01 1007.53 2923.37 995.96 2915.72 984.387 2914.69 970.388 2920.27 953.963 2925.71 937.974 2936.16 924.21 2951.62 912.672 2967.08 901.135 2982.8 895.366 2998.79 895.366ZM1019.36 895.366C1035.27 895.366 1047.05 901.154 1054.69 912.732 1062.33 924.309 1063.45 938.053 1058.04 953.963 1052.48 970.308 1041.93 984.288 1026.37 995.901 1010.81 1007.51 995.116 1013.32 979.278 1013.32 963.36 1013.32 951.581 1007.53 943.939 995.96 936.297 984.387 935.267 970.388 940.847 953.963 946.285 937.974 956.733 924.21 972.191 912.672 987.649 901.135 1003.37 895.366 1019.36 895.366Z" stroke="#000000" stroke-width="3" stroke-linecap="butt" stroke-linejoin="round" stroke-miterlimit="10" stroke-opacity="1" fill="#00A7E9" fill-rule="evenodd" fill-opacity="1"/><text fill="#000000" fill-opacity="0" font-family="Arial,Arial_MSFontService,sans-serif" font-size="594.341" direction="ltr" writing-mode="lr-tb" x="-130.698" y="1415.41">SeismoLiveJP</text><text fill="#00A7E9" fill-opacity="1" font-family="D2Coding,D2Coding_MSFontService,sans-serif" font-style="normal" font-variant="normal" font-weight="700" font-stretch="normal" font-size="138" text-anchor="start" direction="ltr" writing-mode="lr-tb" unicode-bidi="normal" text-decoration="none" transform="matrix(1 0 0 1 -532.812 1854)">SEISMOLIVEJP</text><text fill="#747474" fill-opacity="1" font-family="D2Coding,D2Coding_MSFontService,sans-serif" font-style="oblique" font-variant="normal" font-weight="400" font-stretch="normal" font-size="138" text-anchor="start" direction="ltr" writing-mode="lr-tb" unicode-bidi="normal" text-decoration="none" transform="matrix(1 0 0 1 395.313 1854)">A real</text><text fill="#747474" fill-opacity="1" font-family="D2Coding,D2Coding_MSFontService,sans-serif" font-style="oblique" font-variant="normal" font-weight="400" font-stretch="normal" font-size="138" text-anchor="start" direction="ltr" writing-mode="lr-tb" unicode-bidi="normal" text-decoration="none" transform="matrix(1 0 0 1 807.813 1854)">-</text><text fill="#747474" fill-opacity="1" font-family="D2Coding,D2Coding_MSFontService,sans-serif" font-style="oblique" font-variant="normal" font-weight="400" font-stretch="normal" font-size="138" text-anchor="start" direction="ltr" writing-mode="lr-tb" unicode-bidi="normal" text-decoration="none" transform="matrix(1 0 0 1 876.563 1854)">time, feature</text><text fill="#747474" fill-opacity="1" font-family="D2Coding,D2Coding_MSFontService,sans-serif" font-style="oblique" font-variant="normal" font-weight="400" font-stretch="normal" font-size="138" text-anchor="start" direction="ltr" writing-mode="lr-tb" unicode-bidi="normal" text-decoration="none" transform="matrix(1 0 0 1 1770.31 1854)">-</text><text fill="#747474" fill-opacity="1" font-family="D2Coding,D2Coding_MSFontService,sans-serif" font-style="oblique" font-variant="normal" font-weight="400" font-stretch="normal" font-size="138" text-anchor="start" direction="ltr" writing-mode="lr-tb" unicode-bidi="normal" text-decoration="none" transform="matrix(1 0 0 1 1839.06 1854)">rich earthquake monitoring platform for Japan</text></g></g></svg>